<svg xmlns="http://www.w3.org/2000/svg" viewBox="0 0 413.76 413.76"><defs><style>.cls-1{fill:#fff;}.cls-2{fill:#1e8938;}.cls-3{fill:#fcfcfc;}.cls-4{fill:#fefefe;}.cls-5{fill:#208a39;}.cls-6{fill:#208b39;}.cls-7{fill:#2e9349;}.cls-8{fill:#238d3d;}</style></defs><g id="Capa_2" data-name="Capa 2"><g id="Capa_1-2" data-name="Capa 1"><circle class="cls-1" cx="206.88" cy="206.88" r="206.88"/><path class="cls-2" d="M50.51,295.28a2.72,2.72,0,0,0-.6-1.27,177,177,0,0,1-20.45-58.3,173.79,173.79,0,0,1-2.15-37.15c2-40,15.75-75.54,41.48-106.25,23.45-28,52.9-47,88-57.1A173.1,173.1,0,0,1,194.9,28.8a178.52,178.52,0,0,1,66,8.42,3.59,3.59,0,0,0,.35.08,205.28,205.28,0,0,1,19.71,7.86,178.81,178.81,0,0,1,26.56,15.33A183,183,0,0,1,323,72.69,174.54,174.54,0,0,1,336.74,86,178.42,178.42,0,0,1,376,154.23a165.49,165.49,0,0,1,5.48,23.47l1.23,8c.19.4,0,.86.18,1.26l.06.9c.18.42,0,.88.17,1.29l.07,1.11c.19.5,0,1,.17,1.54l.07,1.34c.22.65-.08,1.34.18,2l.06,1.85c.22.89-.08,1.82.18,2.71l.06,4.24a44.13,44.13,0,0,1,0,5.75l-.06,4.22c-.26.9.05,1.83-.18,2.73l-.06,1.84c-.24.57,0,1.19-.18,1.76l-.06,1.38c-.23.48,0,1-.17,1.5l-.07,1.14c-.22.4,0,.85-.17,1.25s-.05.76-.07,1.13c-.22.4,0,.87-.19,1.27l0,.68c-.24.39,0,.85-.19,1.24-.49,2.93-1,5.85-1.47,8.77a156.49,156.49,0,0,1-3.6,15.88A173.61,173.61,0,0,1,364,288.63a180.23,180.23,0,0,1-18.61,28.73,177.63,177.63,0,0,1-32.19,31.49A171.31,171.31,0,0,1,294,361.61a174.64,174.64,0,0,1-20.05,9.82A178.49,178.49,0,0,1,243.38,381c-4.15.9-8.34,1.62-12.54,2.25-1.39.21-2.78.38-4.18.57-.4.19-.86-.05-1.25.18l-.91.06c-.41.18-.87,0-1.28.17l-1.12.07c-.49.19-1-.05-1.52.17l-1.36.07c-.57.2-1.2-.05-1.77.17l-2.07.07c-.82.21-1.67-.08-2.49.17l-4,.07a62.58,62.58,0,0,1-6.71,0l-4-.06c-.89-.27-1.82,0-2.72-.18l-1.84-.06c-.57-.24-1.19,0-1.76-.18l-1.38-.06c-.48-.23-1,0-1.5-.18l-1.14-.06c-.4-.22-.86,0-1.26-.18-2.44-.25-4.91-.35-7.31-.81s-5.08-.88-7.62-1.36c-3.77-.7-7.5-1.57-11.22-2.5a147.56,147.56,0,0,1-14.8-4.51c-4-1.47-8-3-11.86-4.71-4.15-1.8-8.23-3.76-12.21-5.92a181.23,181.23,0,0,1-23.36-15c-3.57-2.72-7-5.57-10.42-8.49-3.24-2.8-6.38-5.71-9.37-8.76a179.14,179.14,0,0,1-19.72-23.8C55.81,304,53.12,299.68,50.51,295.28Z"/><path class="cls-3" d="M202.2,385h6.71A22.86,22.86,0,0,1,202.2,385Z"/><path class="cls-3" d="M383.89,209.66v-5.75A16.82,16.82,0,0,1,383.89,209.66Z"/><path class="cls-3" d="M383.83,199.67a9.48,9.48,0,0,1-.18-2.71A6.89,6.89,0,0,1,383.83,199.67Z"/><path class="cls-3" d="M383.65,216.61a9.29,9.29,0,0,1,.18-2.73A7,7,0,0,1,383.65,216.61Z"/><path class="cls-3" d="M195.48,384.78a9.22,9.22,0,0,1,2.72.18A6.93,6.93,0,0,1,195.48,384.78Z"/><path class="cls-3" d="M212.89,385a8.35,8.35,0,0,1,2.49-.17A5.66,5.66,0,0,1,212.89,385Z"/><path class="cls-3" d="M383.59,195.11a5,5,0,0,1-.18-2C383.81,193.75,383.54,194.44,383.59,195.11Z"/><path class="cls-3" d="M383.41,220.21a4,4,0,0,1,.18-1.76C383.55,219,383.8,219.65,383.41,220.21Z"/><path class="cls-3" d="M191.88,384.54a4.05,4.05,0,0,1,1.76.18C193.05,384.68,192.43,384.92,191.88,384.54Z"/><path class="cls-3" d="M217.45,384.71a4.08,4.08,0,0,1,1.77-.17C218.66,384.93,218,384.68,217.45,384.71Z"/><path class="cls-3" d="M383.34,191.78a3.23,3.23,0,0,1-.17-1.54C383.54,190.72,383.32,191.26,383.34,191.78Z"/><path class="cls-3" d="M383.18,223.09a3.06,3.06,0,0,1,.17-1.5C383.32,222.09,383.54,222.62,383.18,223.09Z"/><path class="cls-3" d="M189,384.3a3.19,3.19,0,0,1,1.5.18C190,384.45,189.47,384.67,189,384.3Z"/><path class="cls-3" d="M220.58,384.47a3.16,3.16,0,0,1,1.52-.17C221.63,384.67,221.09,384.45,220.58,384.47Z"/><path class="cls-3" d="M223.22,384.23a2.24,2.24,0,0,1,1.28-.17C224.11,384.41,223.65,384.22,223.22,384.23Z"/><path class="cls-3" d="M382.45,229.8a2.13,2.13,0,0,1,.19-1.24C382.61,229,382.8,229.43,382.45,229.8Z"/><path class="cls-3" d="M382.68,227.88a2.23,2.23,0,0,1,.19-1.27C382.85,227,383,227.5,382.68,227.88Z"/><path class="cls-3" d="M382.94,225.48a2.34,2.34,0,0,1,.17-1.25C383.09,224.66,383.27,225.11,382.94,225.48Z"/><path class="cls-3" d="M383.1,189.13a2.27,2.27,0,0,1-.17-1.29C383.28,188.23,383.09,188.7,383.1,189.13Z"/><path class="cls-3" d="M225.41,384a2.24,2.24,0,0,1,1.25-.18C226.29,384.16,225.84,384,225.41,384Z"/><path class="cls-3" d="M186.6,384.06a2.28,2.28,0,0,1,1.26.18C187.43,384.22,187,384.4,186.6,384.06Z"/><path class="cls-3" d="M382.87,186.94a2.27,2.27,0,0,1-.18-1.26C383,186.06,382.85,186.51,382.87,186.94Z"/><path class="cls-4" d="M203.52,283.21c-1.63,3.32-4.32,4.44-7.85,4.43q-36.12-.09-72.23,0c-4.9,0-7.8-2.91-7.8-7.85,0-1.23,0-2.48,0-3.71,0-.75-.16-1.08-1-1a23.2,23.2,0,0,1-3.12,0c-.93-.07-1.23.21-1.22,1.18.06,3.92-.13,7.84.06,11.75a6.53,6.53,0,0,1-7.21,7.14,8,8,0,0,1-4.31-1.16,6.43,6.43,0,0,1-2.7-5.58q0-19.5,0-39,0-55.21,0-110.44c0-1.15-.19-1.59-1.46-1.51-2.07.13-4.16.05-6.24,0a6.21,6.21,0,1,1,0-12.41H318.82c3.38,0,5.82,1.62,6.67,4.41a6.21,6.21,0,0,1-5.88,8c-2.59.06-5.2,0-7.79,0-.71,0-1.07.13-.95.91a4.7,4.7,0,0,1,0,.84V288.24c0,3.47-1.78,6-4.87,6.65a10.29,10.29,0,0,1-4.52,0,6.07,6.07,0,0,1-4.77-6c0-4.2-.05-8.4,0-12.59,0-1.11-.32-1.38-1.34-1.29a23.2,23.2,0,0,1-3.12,0c-.7,0-.88.24-.86.89,0,1.48,0,3,0,4.44a7.1,7.1,0,0,1-7.31,7.25H210.33C207.16,287.61,205,286,203.52,283.21Z"/><path class="cls-5" d="M203.53,225.69c-1.64-3.38-4.38-4.48-7.93-4.47q-36.12.08-72.23,0c-4.75,0-7.71,3-7.73,7.69,0,.88,0,1.76,0,2.64,0,1.27.54,3-.2,3.71s-2.51.16-3.81.25c-.12,0-.24,0-.36,0-.78.13-.92-.26-.92-.95q0-20.16,0-40.3a2.08,2.08,0,0,1,.62-1.49q24.18-26.55,48.3-53.17a5.8,5.8,0,0,1,5.09-2.23c3.67.2,7.36.07,11,0,.73,0,1,.18,1,.92,0,1.6.07,3.2.21,4.79.08.86-.27,1-1,1q-2.16-.06-4.32,0a4.91,4.91,0,0,0-5,4.92q-.1,3.3,0,6.6a4.94,4.94,0,0,0,5,4.93c.8,0,1.6,0,2.4,0H240c3.69,0,5.63-1.93,5.63-5.59v-4.56c0-.52,0-1,0-1.56a4.85,4.85,0,0,0-4.66-4.72c-2.08-.08-4.16-.05-6.24,0-.66,0-.93-.16-.88-.87.11-1.71.18-3.43.22-5.15,0-.53.21-.67.71-.67,3.48,0,7,0,10.44,0,.64,0,.91.42,1.25.79l31.72,34.86q8.91,9.81,17.83,19.61a2.47,2.47,0,0,1,.72,1.8q0,19.91,0,39.81c0,1-.24,1.34-1.25,1.25a18.78,18.78,0,0,0-3,0c-.82.05-1.11-.18-1.08-1.05.07-1.87,0-3.75,0-5.63,0-4.64-3-7.63-7.67-7.63q-36.36,0-72.71,0C207.63,221.22,205.1,222.51,203.53,225.69Z"/><path class="cls-5" d="M110.35,177.22v-1.44q0-18.51,0-37c0-1,.18-1.34,1.28-1.34,11.19.05,22.38,0,33.57,0h1.34C134.42,150.76,122.51,163.86,110.35,177.22Z"/><path class="cls-5" d="M260.55,137.45h1.2q16.9,0,33.82,0c.83,0,1.17.1,1.17,1.08q-.06,18.87,0,37.75v.94Z"/><path class="cls-5" d="M190.63,228.92l-9.95,6.45a2,2,0,0,1-1.16.17H140.67a2.15,2.15,0,0,1-1.27-.22l-9.83-6.4Z"/><path class="cls-5" d="M277.48,228.93l-9.69,6.32a2.16,2.16,0,0,1-1.26.29H227.45a2.12,2.12,0,0,1-1.26-.27l-9.72-6.34Z"/><path class="cls-6" d="M205.19,144.12c-8.11,0-16.23,0-24.34,0-1,0-1.29-.28-1.18-1.27a32.57,32.57,0,0,0,.2-4.19c0-1,.3-1.25,1.29-1.25,9.43,0,18.87,0,28.3,0,6.67,0,13.35,0,20,0,.94,0,1.26.24,1.23,1.18a36.58,36.58,0,0,0,.09,4.19c.09,1-.16,1.35-1.27,1.35C221.42,144.09,213.31,144.12,205.19,144.12Z"/><path class="cls-5" d="M189.14,280H130.92a3.42,3.42,0,0,1,1.39-1.1c1.93-1.27,3.74-3,5.87-3.62s4.67-.22,7-.22c11.71,0,23.42,0,35.12,0a5.09,5.09,0,0,1,3.12.94c1.89,1.31,3.84,2.53,5.77,3.79Z"/><path class="cls-5" d="M276,280H217.75a15,15,0,0,1,2-1.51c3.34-2.93,7.19-3.61,11.59-3.52,11.95.25,23.9.1,35.85.07a5,5,0,0,1,3,.87c1.92,1.34,3.91,2.58,5.87,3.86Z"/><path class="cls-6" d="M291.43,255.23c0-4.4,0-8.79,0-13.19,0-.88.19-1.21,1.12-1.14a31.37,31.37,0,0,0,3.36,0c.6,0,.84.16.83.8q0,13.54,0,27.09c0,.64-.2.85-.82.81a32.31,32.31,0,0,1-4.4-.15c0-1.35-.07-2.7-.08-4.05C291.42,262,291.43,258.63,291.43,255.23Z"/><path class="cls-6" d="M115.64,255.35c0,4.36,0,8.71,0,13.06,0,1-.29,1.3-1.27,1.22a26.77,26.77,0,0,0-3.23,0c-.63,0-.82-.19-.82-.82q0-13.53,0-27.07c0-.64.23-.83.84-.81,1.16,0,2.32.05,3.48,0,.82,0,1,.27,1,1C115.62,246.41,115.64,250.88,115.64,255.35Z"/><path class="cls-6" d="M146.37,257.71,144,259.28c-4.94,3.22-9.91,6.41-14.82,9.68a4.71,4.71,0,0,1-2.83.66c-.47,0-.62-.19-.62-.64q0-5.39,0-10.78c0-.6.27-.72.8-.72h19.74Z"/><path class="cls-6" d="M260.7,257.48h3.71c5.28,0,10.55,0,15.83,0,.9,0,1.14.25,1.13,1.15-.06,3.35,0,6.71,0,10.06,0,.72-.16,1-.92,1a4.52,4.52,0,0,1-2.68-.78c-5.36-3.53-10.76-7-16.14-10.54C261.31,258.12,260.88,258,260.7,257.48Z"/><path class="cls-6" d="M146.32,252.09H131c-1.47,0-3,0-4.43,0-.69,0-.88-.23-.88-.89,0-3.15,0-6.31,0-9.46,0-.6.17-.83.81-.85a7.89,7.89,0,0,1,5.16,1.32c4.83,3.31,9.79,6.43,14.7,9.63Z"/><path class="cls-6" d="M260.66,252.09c.19-.48.56-.58.84-.76,5-3.25,10-6.46,14.93-9.76,1.46-1,3-.53,4.52-.61.46,0,.39.41.39.72,0,3.23,0,6.47,0,9.7,0,.49-.12.72-.66.72Z"/><path class="cls-6" d="M173.89,257.48H181c3.92,0,7.83,0,11.75,0,1,0,1.2.31,1.18,1.22-.05,3.16,0,6.31,0,9.47,0,1.48-.79,1.94-2.14,1.27-.14-.07-.28-.17-.41-.25q-8.53-5.55-17.06-11.11C174.16,257.94,173.85,257.91,173.89,257.48Z"/><path class="cls-6" d="M233.24,257.73l-4.18,2.73L215.93,269a6.46,6.46,0,0,1-.71.44c-1.33.63-2.06.19-2.06-1.25V258.5c0-.51-.11-1,.73-1,6.42,0,12.83,0,19.25,0Z"/><path class="cls-6" d="M173.78,252.09c.22-.5.63-.62.94-.83,4.94-3.23,9.92-6.41,14.83-9.69,1.28-.86,2.59-.57,3.92-.63.45,0,.47.34.47.67v9.83c0,.42-.12.66-.61.66Z"/><path class="cls-6" d="M233.2,252.09h-8.48c-3.52,0-7,0-10.56,0-.64,0-1,0-1-.87.05-3.15,0-6.31,0-9.47,0-.6.16-.83.8-.85a6.65,6.65,0,0,1,4.28,1.11c5,3.35,10,6.57,15,9.83Z"/><path class="cls-6" d="M173.34,269.6H147c-.1-.41.28-.44.47-.56q6-3.92,11.93-7.79c.39-.25.71-.52,1.26-.15,4.16,2.75,8.35,5.46,12.52,8.19C173.2,269.33,173.22,269.41,173.34,269.6Z"/><path class="cls-6" d="M260.46,269.55h-27l3.59-2.34,9.13-5.95a1,1,0,0,1,1.36-.11c4.1,2.71,8.22,5.37,12.33,8.05Z"/><path class="cls-6" d="M172.07,241l-5.44,3.54c-1.94,1.26-3.87,2.52-5.82,3.77-.3.2-.55.6-1,.27L148.12,241Z"/><path class="cls-6" d="M235.35,241h23.22c.16.35-.17.4-.34.51l-10.62,6.92c-.33.22-.6.46-1.06.15q-5.64-3.71-11.3-7.37Z"/><path class="cls-7" d="M125.76,229.66c-.18-.88.26-.89.89-.77A1.46,1.46,0,0,1,125.76,229.66Z"/><path class="cls-8" d="M281.26,229.73l-.78-.67c.06-.09.08-.18.12-.19C281.23,228.74,281.49,229,281.26,229.73Z"/></g></g></svg>