<svg xmlns="http://www.w3.org/2000/svg" viewBox="0 0 84.18 84.18"><defs><style>.cls-1{fill:#383861;}.cls-2{fill:#fff;}</style></defs><g id="Capa_2" data-name="Capa 2"><g id="Capa_1-2" data-name="Capa 1"><circle class="cls-1" cx="42.09" cy="42.09" r="42.09"/><g id="Capa_2-2" data-name="Capa 2"><g id="Capa_1-2-2" data-name="Capa 1-2"><path class="cls-2" d="M66,69.14c-1.5,1.28-2.65.13-3.88-.7-5.37-3.6-10.92-7-16.06-10.88-2.78-2.09-4.71-1.91-7.45-.15-5.32,3.37-10.89,6.34-16.39,9.43-1.23.68-2.53,2-4,.59C17,66.21,18,65,18.58,63.81L41.49,16.92c.57-1.17.87-2.59,2.68-2.44s1.85,1.7,2.32,2.86q9.69,24,19.28,48C66.24,66.47,67.06,67.73,66,69.14Z"/></g></g></g></g></svg>