<svg xmlns="http://www.w3.org/2000/svg" viewBox="0 0 48.9 55.24"><defs><style>.cls-1{fill:#fff;}</style></defs><g id="Capa_2" data-name="Capa 2"><g id="Capa_1-2" data-name="Capa 1"><path class="cls-1" d="M48.39,54.67c-1.5,1.28-2.65.13-3.88-.7-5.37-3.6-10.92-7-16.06-10.88C25.67,41,23.74,41.18,21,42.94c-5.32,3.37-10.89,6.34-16.39,9.43-1.23.68-2.53,2.05-4,.59-1.22-1.22-.22-2.45.35-3.62Q12.41,25.9,23.87,2.45c.57-1.17.87-2.59,2.68-2.44s1.85,1.7,2.32,2.86q9.68,24,19.28,48C48.62,52,49.44,53.26,48.39,54.67Z"/></g></g></svg>